<svg width="2.5em" height="2.5em" viewBox="0 0 24 24" version="1.1" id="svg142">
  <path fill="currentColor" fillRule="evenodd" d="M 7.0265174,0.6240213 C 3.8030272,1.1765668 1.5803533,4.161493 1.9748581,7.4081158 l 0.026063,0.214638 c 0.093727,0.7689064 0.746266,1.3471152 1.5208638,1.3476197 H 6.2262242 L 1.6789641,22.485538 c -0.3209347,1.499401 1.9281652,1.980803 2.2491,0.481403 L 6.2952149,16.210443 H 17.898146 l 2.178364,6.756498 c 0.356857,1.441908 2.512601,0.980171 2.247567,-0.481403 L 17.776816,8.9703735 h 2.70444 c 0.775699,1.762e-4 1.429313,-0.5790583 1.522397,-1.3491528 L 22.02971,7.4081158 C 22.42422,4.161493 20.201548,1.1765668 16.978056,0.6240213 L 16.406199,0.5259014 c -2.91468,-0.49968029 -5.893144,-0.49968029 -8.8078246,0 z M 15.45106,8.9703735 H 8.5519805 c 2.768e-4,0.080872 -0.00795,0.1615482 -0.024531,0.2407011 L 7.072828,13.910749 H 17.088812 L 15.477123,9.2110746 c -0.01707,-0.079107 -0.02581,-0.1597761 -0.02607,-0.2407011 z" clipRule="evenodd" id="path140" style="stroke-width:1.53312" />
</svg>
